<svg width="70" height="65" viewBox="0 0 70 65" fill="none" xmlns="http://www.w3.org/2000/svg">
<g id="Icons/illustration" clip-path="url(#clip0_2_6449)">
<g id="Group">
<g id="Group_2">
<path id="Vector" d="M32.5749 47.1821C32.0167 47.1821 31.5645 47.6056 31.5645 48.1279C31.5645 48.6502 32.0167 49.0736 32.5749 49.0736H37.4252C37.9834 49.0736 38.4357 48.6502 38.4357 48.1279C38.4357 47.6056 37.9834 47.1821 37.4252 47.1821H32.5749Z" fill="#FFB400"/>
<path id="Vector_2" d="M12.635 32.4967H19.3143C19.7223 33.4905 20.7501 34.1991 21.9538 34.1991C23.1575 34.1991 24.1853 33.4905 24.5933 32.4967H25.9283C26.4865 32.4967 26.9388 32.0733 26.9388 31.5509C26.9388 31.0286 26.4865 30.6052 25.9283 30.6052H24.5933C24.1853 29.6114 23.1575 28.9028 21.9538 28.9028C20.7501 28.9028 19.7223 29.6114 19.3143 30.6052H12.635C12.0768 30.6052 11.6245 31.0286 11.6245 31.5509C11.6245 32.0733 12.0768 32.4967 12.635 32.4967ZM21.9538 30.7943C22.3996 30.7943 22.7622 31.1337 22.7622 31.5509C22.7622 31.9682 22.3996 32.3076 21.9538 32.3076C21.508 32.3076 21.1454 31.9682 21.1454 31.5509C21.1454 31.1337 21.508 30.7943 21.9538 30.7943Z" fill="#FFB400"/>
<path id="Vector_3" d="M12.635 27.0743H13.9252C14.3331 28.0681 15.361 28.7767 16.5646 28.7767C17.7683 28.7767 18.7962 28.0681 19.2041 27.0743H25.9283C26.4865 27.0743 26.9388 26.6509 26.9388 26.1286C26.9388 25.6063 26.4865 25.1828 25.9283 25.1828H19.2041C18.7962 24.189 17.7683 23.4805 16.5646 23.4805C15.361 23.4805 14.3331 24.189 13.9252 25.1828H12.635C12.0768 25.1828 11.6245 25.6063 11.6245 26.1286C11.6245 26.6509 12.0768 27.0743 12.635 27.0743ZM16.5646 25.372C17.0105 25.372 17.373 25.7113 17.373 26.1286C17.373 26.5459 17.0105 26.8852 16.5646 26.8852C16.1188 26.8852 15.7563 26.5459 15.7563 26.1286C15.7563 25.7113 16.1188 25.372 16.5646 25.372Z" fill="#FFB400"/>
<path id="Vector_4" d="M26.1306 18.3734C26.6887 18.3734 27.1411 17.95 27.1411 17.4277C27.1411 16.9054 26.6887 16.4819 26.1306 16.4819C25.5725 16.4819 25.1201 16.9054 25.1201 17.4277C25.1201 17.95 25.5725 18.3734 26.1306 18.3734Z" fill="#FFB400"/>
<path id="Vector_5" d="M23.3459 18.3734C23.904 18.3734 24.3564 17.95 24.3564 17.4277C24.3564 16.9054 23.904 16.4819 23.3459 16.4819C22.7879 16.4819 22.3354 16.9054 22.3354 17.4277C22.3354 17.95 22.7879 18.3734 23.3459 18.3734Z" fill="#FFB400"/>
<path id="Vector_6" d="M20.5613 18.3734C21.1193 18.3734 21.5717 17.95 21.5717 17.4277C21.5717 16.9054 21.1193 16.4819 20.5613 16.4819C20.0032 16.4819 19.5508 16.9054 19.5508 17.4277C19.5508 17.95 20.0032 18.3734 20.5613 18.3734Z" fill="#FFB400"/>
<path id="Vector_7" d="M66.4593 6.70283H66.0809L66.3631 6.43865C67.2085 5.64737 67.2085 4.35975 66.3631 3.56847L64.1511 1.49815C63.3057 0.706996 61.9301 0.706996 61.0846 1.49815L55.5241 6.7027H3.54069C1.86924 6.7027 0.509277 7.97544 0.509277 9.53997V48.8158C0.509277 50.728 2.1713 52.2836 4.21434 52.2836H28.1483V58.9738H23.2785C21.9785 58.9738 20.9208 59.9638 20.9208 61.1806V62.1256C20.9208 63.3423 21.9785 64.3324 23.2785 64.3324H46.7215C48.0215 64.3324 49.0792 63.3423 49.0792 62.1256V61.1806C49.0792 59.9638 48.0215 58.9738 46.7215 58.9738H41.8517V52.2836H52.6496C53.2077 52.2836 53.66 51.8601 53.66 51.3378C53.66 50.8155 53.2077 50.392 52.6496 50.392H4.21434C3.28565 50.392 2.53022 49.685 2.53022 48.8158V46.0164H67.4698V48.8158C67.4698 49.685 66.7144 50.392 65.7857 50.392H57.3651C56.8069 50.392 56.3546 50.8155 56.3546 51.3378C56.3546 51.8601 56.8069 52.2836 57.3651 52.2836H65.7857C67.8287 52.2836 69.4907 50.728 69.4907 48.8158V9.5401C69.4907 7.97569 68.1308 6.70283 66.4593 6.70283ZM46.7215 60.8655C46.9072 60.8655 47.0583 61.007 47.0583 61.1807V62.1257C47.0583 62.2995 46.9072 62.441 46.7215 62.441H23.2785C23.0928 62.441 22.9417 62.2995 22.9417 62.1257V61.1807C22.9417 61.007 23.0928 60.8655 23.2785 60.8655H46.7215ZM30.1693 52.2838H39.8309V58.9741H30.1693V52.2838ZM62.5136 2.83583C62.5713 2.78198 62.6648 2.78211 62.7222 2.83583L64.934 4.90602C64.9916 4.95987 64.9916 5.04751 64.934 5.10123L62.8235 7.07659L60.4031 4.81119L62.5136 2.83583ZM58.974 6.14875L61.3943 8.41414L60.6895 9.07378L58.2692 6.80838L58.974 6.14875ZM56.8402 8.14593L59.2606 10.4113L47.3032 21.6029L44.8828 19.3375L56.8402 8.14593ZM55.3441 16.7925C56.7185 16.7925 57.8366 17.839 57.8366 19.1254C57.8366 20.4117 56.7185 21.4583 55.3441 21.4583C53.9698 21.4583 52.8516 20.4117 52.8516 19.1254C52.8516 19.1104 52.8538 19.0959 52.8541 19.0809L55.297 16.7948C55.3127 16.7945 55.3282 16.7925 55.3441 16.7925ZM45.5485 22.6357L42.5579 23.7789L43.7794 20.9798L45.5485 22.6357ZM67.4698 44.1251H2.53022V9.5401C2.53022 9.01867 2.98345 8.59434 3.54069 8.59434H53.5033L51.9626 10.0364H17.6199C17.0617 10.0364 16.6094 10.4599 16.6094 10.9822C16.6094 11.5045 17.0617 11.9279 17.6199 11.9279H49.9418L42.8144 18.5992C42.613 18.7893 42.4555 19.0113 42.3471 19.2597L40.0899 24.4318C39.8829 24.9069 39.9995 25.4482 40.3872 25.8109C40.6473 26.0544 40.9933 26.1835 41.3462 26.1835C41.5191 26.1835 41.6936 26.1525 41.8606 26.0888L47.3865 23.9764C47.6444 23.8777 47.875 23.735 48.0744 23.554L51.1484 20.6773C51.8106 22.2408 53.4408 23.3499 55.3443 23.3499C57.833 23.3499 59.8577 21.4548 59.8577 19.1255C59.8577 17.3442 58.673 15.8185 57.0028 15.1986L60.4975 11.9281H63.9081V40.7916H63.3725L59.7106 34.8552C59.4317 34.4027 58.8133 34.2478 58.3303 34.509C57.847 34.7702 57.6814 35.3486 57.9604 35.8009L61.039 40.7916H46.9234L45.4095 38.3373L52.4673 26.8958L55.6025 31.9787C55.8817 32.431 56.4997 32.5861 56.9828 32.3249C57.4661 32.0637 57.6317 31.4853 57.3527 31.0329L54.0078 25.6105C53.6862 25.0892 53.1103 24.778 52.4671 24.778C51.8239 24.778 51.248 25.0892 50.9264 25.6105L44.2424 36.4459L35.6664 22.5432C35.3448 22.0219 34.7689 21.7107 34.1256 21.7107C33.4825 21.7107 32.9066 22.0219 32.585 22.5432L30.3066 26.2368V16.0992C30.3066 14.8825 29.2488 13.8925 27.9488 13.8925H10.614C9.31398 13.8925 8.25622 14.8825 8.25622 16.0992V36.7797C8.25622 37.6489 9.01164 38.356 9.94033 38.356H22.8311L21.3286 40.7918H6.09206V11.9279H12.9044C13.4626 11.9279 13.9149 11.5045 13.9149 10.9822C13.9149 10.4599 13.4626 10.0364 12.9044 10.0364H5.75524C4.82655 10.0364 4.07112 10.7435 4.07112 11.6127V41.1068C4.07112 41.976 4.82655 42.683 5.75524 42.683H64.2449C65.1736 42.683 65.929 41.976 65.929 41.1068V11.6127C65.929 10.7435 65.1736 10.0364 64.2449 10.0364H62.5187L64.0598 8.59434H66.4593C67.0166 8.59434 67.4698 9.01867 67.4698 9.5401V44.1251ZM28.286 21.3369V36.4642H10.2772V21.3369H28.286ZM10.2772 19.4454V16.099C10.2772 15.9252 10.4282 15.7837 10.614 15.7837H27.9492C28.135 15.7837 28.286 15.9252 28.286 16.099V19.4454H10.2772ZM25.1648 38.3557H28.6229C29.5515 38.3557 30.307 37.6487 30.307 36.7795V34.7761C30.5597 34.8896 30.8412 34.951 31.136 34.951C31.8258 34.951 32.4434 34.6171 32.7881 34.0581L34.5078 31.2704C34.5598 31.1862 34.6393 31.1684 34.6966 31.1684C34.7541 31.1684 34.8336 31.1862 34.8855 31.2704L35.9457 32.989C36.2906 33.5483 36.9083 33.8821 37.5983 33.8821C38.2881 33.8821 38.9058 33.5483 39.2506 32.9891L39.5138 32.5624L44.5899 40.7914H23.6623L25.1648 38.3557ZM30.307 31.6102V30.0196L34.1261 23.8284L38.347 30.6709L37.5981 31.8848L36.6356 30.3245C36.2309 29.6684 35.506 29.2767 34.6965 29.2767C33.887 29.2767 33.1622 29.6684 32.7574 30.3245L31.1356 32.9537L30.307 31.6102Z" fill="#FFB400"/>
</g>
</g>
</g>
<defs>
<clipPath id="clip0_2_6449">
<rect width="68.9814" height="64.5636" fill="white" transform="translate(0.509277 0.336914)"/>
</clipPath>
</defs>
</svg>
