<svg width="70" height="65" viewBox="0 0 70 65" fill="none" xmlns="http://www.w3.org/2000/svg">
<g id="Icons/coding">
<g id="Group">
<path id="Vector" d="M64.8776 7.39844H5.59664C4.59647 7.39947 3.63758 7.7718 2.93036 8.43373C2.22313 9.09567 1.82532 9.99314 1.82422 10.9293V46.2374C1.82532 47.1736 2.22313 48.071 2.93036 48.733C3.63758 49.3949 4.59647 49.7672 5.59664 49.7683H27.1776L25.8842 52.7947H20.1474C19.8616 52.7947 19.5874 52.901 19.3853 53.0902C19.1831 53.2793 19.0696 53.5359 19.0696 53.8035V55.8211H12.6026C12.3167 55.8211 12.0426 55.9274 11.8404 56.1166C11.6383 56.3058 11.5247 56.5624 11.5247 56.8299C11.5247 57.0975 11.6383 57.3541 11.8404 57.5432C12.0426 57.7324 12.3167 57.8387 12.6026 57.8387H57.8716C58.1575 57.8387 58.4317 57.7324 58.6338 57.5432C58.8359 57.3541 58.9495 57.0975 58.9495 56.8299C58.9495 56.5624 58.8359 56.3058 58.6338 56.1166C58.4317 55.9274 58.1575 55.8211 57.8716 55.8211H51.4046V53.8035C51.4046 53.5359 51.2911 53.2793 51.0889 53.0902C50.8868 52.901 50.6127 52.7947 50.3268 52.7947H44.59L43.2966 49.7683H64.8776C65.8777 49.7672 66.8366 49.3949 67.5439 48.733C68.2511 48.071 68.6489 47.1736 68.65 46.2374V10.9293C68.6489 9.99314 68.2511 9.09567 67.5439 8.43373C66.8366 7.7718 65.8777 7.39947 64.8776 7.39844ZM49.249 54.8123V55.8211H21.2253V54.8123H49.249ZM28.2069 52.7947L29.5003 49.7683H40.9739L42.2673 52.7947H28.2069ZM66.4943 46.2374C66.494 46.6387 66.3235 47.0234 66.0204 47.3071C65.7173 47.5908 65.3063 47.7503 64.8776 47.7507H5.59664C5.16796 47.7503 4.75694 47.5908 4.45382 47.3071C4.1507 47.0234 3.98025 46.6387 3.97989 46.2374V43.7154H66.4943V46.2374ZM66.4943 41.6978H3.97989V10.9293C3.98025 10.528 4.1507 10.1433 4.45382 9.85963C4.75694 9.57592 5.16796 9.41638 5.59664 9.41605H64.8776C65.3063 9.41638 65.7173 9.57592 66.0204 9.85963C66.3235 10.1433 66.494 10.528 66.4943 10.9293V41.6978Z" fill="#FFB400"/>
<path id="Vector_2" d="M30.3342 33.462C30.4525 33.5347 30.585 33.5849 30.7241 33.6096C30.8631 33.6344 31.006 33.6333 31.1446 33.6063C31.2832 33.5794 31.4148 33.5272 31.5318 33.4526C31.6489 33.3781 31.7491 33.2827 31.8267 33.172L40.3147 21.0663C40.4715 20.8426 40.527 20.5698 40.469 20.3078C40.4109 20.0458 40.244 19.8162 40.005 19.6694C39.7661 19.5225 39.4746 19.4706 39.1947 19.5249C38.9148 19.5793 38.6694 19.7355 38.5125 19.9591L30.0246 32.0648C29.9468 32.1756 29.8932 32.2996 29.8667 32.4297C29.8402 32.5599 29.8414 32.6937 29.8701 32.8234C29.8989 32.9532 29.9546 33.0764 30.0343 33.1859C30.1139 33.2955 30.2158 33.3893 30.3342 33.462Z" fill="#FFB400"/>
<path id="Vector_3" d="M42.092 33.3934C42.3116 33.5646 42.5949 33.6472 42.8796 33.623C43.1643 33.5988 43.427 33.4697 43.61 33.2641L48.9992 27.2113C49.1605 27.03 49.2489 26.8015 49.2489 26.5655C49.2489 26.3296 49.1605 26.1011 48.9992 25.9198L43.61 19.8669C43.5197 19.7643 43.4086 19.6794 43.2831 19.6171C43.1576 19.5548 43.0201 19.5163 42.8787 19.5039C42.7373 19.4915 42.5946 19.5054 42.4589 19.5447C42.3232 19.5841 42.1972 19.6482 42.0881 19.7333C41.9789 19.8184 41.8888 19.9229 41.823 20.0407C41.7571 20.1585 41.7168 20.2873 41.7044 20.4198C41.6919 20.5522 41.7075 20.6856 41.7503 20.8124C41.7932 20.9392 41.8623 21.0568 41.9539 21.1585L46.768 26.5655L41.9539 31.9726C41.7709 32.1782 41.6827 32.4433 41.7086 32.7098C41.7344 32.9762 41.8724 33.2221 42.092 33.3934Z" fill="#FFB400"/>
<path id="Vector_4" d="M26.864 33.2641C26.9544 33.3668 27.0655 33.4517 27.191 33.514C27.3165 33.5763 27.4539 33.6147 27.5953 33.6271C27.7367 33.6396 27.8794 33.6257 28.0151 33.5863C28.1508 33.547 28.2768 33.4829 28.3859 33.3978C28.4951 33.3127 28.5852 33.2082 28.651 33.0904C28.7169 32.9726 28.7572 32.8437 28.7697 32.7113C28.7821 32.5789 28.7665 32.4454 28.7237 32.3186C28.6809 32.1919 28.6117 32.0743 28.5201 31.9726L23.706 26.5655L28.5201 21.1585C28.6117 21.0568 28.6809 20.9392 28.7237 20.8124C28.7665 20.6856 28.7821 20.5522 28.7697 20.4198C28.7572 20.2873 28.7169 20.1585 28.651 20.0407C28.5852 19.9229 28.4951 19.8184 28.3859 19.7333C28.2768 19.6482 28.1508 19.5841 28.0151 19.5447C27.8794 19.5054 27.7367 19.4915 27.5953 19.5039C27.4539 19.5163 27.3165 19.5548 27.191 19.6171C27.0655 19.6794 26.9544 19.7643 26.864 19.8669L21.4749 25.9198C21.3135 26.1011 21.2251 26.3296 21.2251 26.5655C21.2251 26.8015 21.3135 27.03 21.4749 27.2113L26.864 33.2641Z" fill="#FFB400"/>
</g>
</g>
</svg>
