<svg width="76" height="71" viewBox="0 0 76 71" fill="none" xmlns="http://www.w3.org/2000/svg">
<g id="Icons/Microphone" clip-path="url(#clip0_2_6360)">
<g id="Group">
<g id="Group_2">
<path id="Vector" d="M37.7629 0.488281C29.6654 0.488281 23.0757 6.9003 23.0757 14.7802V35.6185C23.0757 43.4998 29.6654 49.9103 37.7629 49.9103C45.8605 49.9103 52.4501 43.4998 52.4501 35.6185V14.7802C52.4501 6.9003 45.8605 0.488281 37.7629 0.488281ZM37.7629 46.8555C31.9925 46.8555 27.2191 42.62 26.457 37.1458H49.0672C48.3067 42.6216 43.5334 46.8555 37.7629 46.8555ZM49.1863 34.091H26.3395V14.7802C26.3395 8.58349 31.4637 3.54308 37.7629 3.54308C44.0621 3.54308 49.1863 8.58349 49.1863 14.7802V34.091Z" fill="#FFB400"/>
</g>
</g>
<g id="Group_3">
<g id="Group_4">
<path id="Vector_2" d="M60.6097 27.9814C59.7089 27.9814 58.9778 28.6657 58.9778 29.5088V35.6184C58.9778 46.5668 49.4604 55.4746 37.7629 55.4746C26.0653 55.4746 16.548 46.5668 16.548 35.6184V29.5088C16.548 28.6657 15.8169 27.9814 14.9161 27.9814C14.0153 27.9814 13.2842 28.6657 13.2842 29.5088V35.6184C13.2842 47.7353 23.3939 57.6603 36.131 58.4515V67.6938H27.9714C27.0706 67.6938 26.3395 68.3781 26.3395 69.2212C26.3395 70.0643 27.0706 70.7486 27.9714 70.7486H47.5544C48.4552 70.7486 49.1863 70.0643 49.1863 69.2212C49.1863 68.3781 48.4552 67.6938 47.5544 67.6938H39.3948V58.4515C52.1319 57.6603 62.2416 47.7353 62.2416 35.6184V29.5088C62.2416 28.6657 61.5105 27.9814 60.6097 27.9814Z" fill="#FFB400"/>
</g>
</g>
</g>
<defs>
<clipPath id="clip0_2_6360">
<rect width="75.068" height="70.2603" fill="white" transform="translate(0.229004 0.488281)"/>
</clipPath>
</defs>
</svg>
