<svg width="76" height="71" viewBox="0 0 76 71" fill="none" xmlns="http://www.w3.org/2000/svg">
<g id="Icons/game-development" clip-path="url(#clip0_2_6154)">
<path id="Vector" d="M33.5454 36.9312H42.9289V39.1268H33.5454V36.9312Z" fill="#FFB400"/>
<path id="Vector_2" d="M37.064 33.6377H39.4098V42.4202H37.064V33.6377Z" fill="#FFB400"/>
<path id="Vector_3" d="M67.5605 36.9312H69.9064V39.1268H67.5605V36.9312Z" fill="#FFB400"/>
<path id="Vector_4" d="M58.1772 36.9312H60.5231V39.1268H58.1772V36.9312Z" fill="#FFB400"/>
<path id="Vector_5" d="M62.8687 32.54H65.2145V34.7357H62.8687V32.54Z" fill="#FFB400"/>
<path id="Vector_6" d="M62.8687 41.3223H65.2145V43.5179H62.8687V41.3223Z" fill="#FFB400"/>
<path id="Vector_7" d="M11.5165 20.0521L6.23828 13.8769L11.5165 7.70166L13.3481 9.07393L9.24279 13.8769L13.3481 18.6798L11.5165 20.0521Z" fill="#FFB400"/>
<path id="Vector_8" d="M29.7696 20.0521L27.938 18.6798L32.0444 13.8769L27.938 9.07393L29.7696 7.70166L35.0466 13.8769L29.7696 20.0521Z" fill="#FFB400"/>
<path id="Vector_9" d="M15.6533 17.5441L23.8662 8.76367L25.6313 10.2094L17.4185 18.9903L15.6533 17.5441Z" fill="#FFB400"/>
<path id="Vector_10" d="M10.0868 49.007H5.39502V44.6157H7.7409V46.8114H10.0868V49.007Z" fill="#FFB400"/>
<path id="Vector_11" d="M72.2523 2.89893H4.22194C2.27869 2.89893 0.703125 4.37358 0.703125 6.19238V50.1051C0.703125 51.9239 2.27869 53.3985 4.22194 53.3985H28.8536V58.8876C28.8536 60.7064 27.2781 62.1811 25.3348 62.1811H19.4701V68.768H57.0042V62.1811H51.1395C49.1962 62.1811 47.6207 60.7064 47.6207 58.8876V53.3985H72.2523C74.1956 53.3985 75.7712 51.9239 75.7712 50.1051V6.19238C75.7712 4.37358 74.1956 2.89893 72.2523 2.89893ZM54.6583 64.3767V66.5724H21.816V64.3767H54.6583ZM38.2371 60.0316C40.1804 60.0316 41.756 58.5569 41.756 56.7381V53.3985H45.2748V58.8876C45.2794 60.0793 45.702 61.2366 46.4781 62.1811H29.9962C30.7723 61.2366 31.1949 60.0793 31.1995 58.8876V53.3985H34.7183V56.7381C34.7183 58.5569 36.2939 60.0316 38.2371 60.0316ZM37.0642 56.7381V53.3985H39.4101V56.7381C39.4101 57.3444 38.8849 57.8359 38.2371 57.8359C37.5894 57.8359 37.0642 57.3444 37.0642 56.7381ZM73.4253 50.1051C73.4253 50.7114 72.9001 51.2029 72.2523 51.2029H4.22194C3.57419 51.2029 3.049 50.7114 3.049 50.1051V40.2247H26.7426C27.7139 44.6937 31.5374 48.1341 36.3472 48.8658C41.1563 49.598 45.9477 47.4688 48.3818 43.5182H53.8948C55.8604 46.7168 59.4159 48.7736 63.3517 48.989C67.2874 49.2045 71.0743 47.5498 73.4253 44.5876V50.1051ZM64.0418 46.8116C60.4766 46.8197 57.2184 44.9253 55.6457 41.931L55.3209 41.3225H46.958L46.6333 41.931C44.576 45.813 39.8013 47.7111 35.3884 46.4005C30.975 45.0893 28.2431 40.9623 28.9544 36.6799C29.6652 32.398 33.6072 29.2417 38.2371 29.2466H64.0418C69.2244 29.2466 73.4253 33.1784 73.4253 38.0291C73.4253 42.8798 69.2244 46.8116 64.0418 46.8116ZM73.4253 31.4706C71.2192 28.6928 67.7399 27.0541 64.0418 27.0509H38.2371C31.7619 27.0574 26.5146 31.9686 26.5078 38.0291H3.049V6.19238C3.049 5.58611 3.57419 5.09456 4.22194 5.09456H72.2523C72.9001 5.09456 73.4253 5.58611 73.4253 6.19238V31.4706Z" fill="#FFB400"/>
<path id="Vector_12" d="M48.7935 36.9312H53.4852V39.1268H48.7935V36.9312Z" fill="#FFB400"/>
<path id="Vector_13" d="M35.8911 9.48584H45.2746V11.6815H35.8911V9.48584Z" fill="#FFB400"/>
<path id="Vector_14" d="M49.9663 9.48584H68.7333V11.6815H49.9663V9.48584Z" fill="#FFB400"/>
<path id="Vector_15" d="M52.3125 13.877H68.7336V16.0726H52.3125V13.877Z" fill="#FFB400"/>
<path id="Vector_16" d="M38.2373 13.877H47.6208V16.0726H38.2373V13.877Z" fill="#FFB400"/>
<path id="Vector_17" d="M35.8911 18.2681H59.3499V20.4637H35.8911V18.2681Z" fill="#FFB400"/>
<path id="Vector_18" d="M64.042 18.2681H68.7337V20.4637H64.042V18.2681Z" fill="#FFB400"/>
<path id="Vector_19" d="M7.74072 22.6597H19.4701V24.8553H7.74072V22.6597Z" fill="#FFB400"/>
<path id="Vector_20" d="M24.1621 22.6597H46.4479V24.8553H24.1621V22.6597Z" fill="#FFB400"/>
<path id="Vector_21" d="M49.9663 22.6597H68.7333V24.8553H49.9663V22.6597Z" fill="#FFB400"/>
<path id="Vector_22" d="M7.74072 27.0508H26.5077V29.2464H7.74072V27.0508Z" fill="#FFB400"/>
<path id="Vector_23" d="M7.74072 31.4419H17.1242V33.6375H7.74072V31.4419Z" fill="#FFB400"/>
<path id="Vector_24" d="M19.4702 31.4419H24.162V33.6375H19.4702V31.4419Z" fill="#FFB400"/>
</g>
<defs>
<clipPath id="clip0_2_6154">
<rect width="75.068" height="70.2603" fill="white" transform="translate(0.703125 0.703125)"/>
</clipPath>
</defs>
</svg>
