<svg width="80" height="75" viewBox="0 0 80 75" fill="none" xmlns="http://www.w3.org/2000/svg">
<g id="Icons/Photographer" clip-path="url(#clip0_2_6020)">
<g id="Group">
<g id="Group_2">
<path id="Vector" d="M56.591 69.3877H76.2282L71.1871 55.2318C69.8688 51.5301 66.5047 48.7852 62.4067 48.0661L48.9337 45.701V42.7829C52.1612 40.6029 54.4393 37.2822 55.1004 33.4527C58.1122 32.9761 60.4197 30.5334 60.4197 27.5806V19.2192C60.4197 8.68145 51.2589 0.107422 40.0001 0.107422C28.7413 0.107422 19.5805 8.68145 19.5805 19.2192V27.5806C19.5805 30.5298 21.8765 32.9869 24.8832 33.4683C25.5469 37.2978 27.8377 40.622 31.0665 42.8008V45.7022L17.5922 48.0673C13.4955 48.7864 10.1301 51.5313 8.81177 55.233L3.77197 69.3877H23.4092V66.9987H19.9392L22.0947 58.9263L19.6188 58.3482L17.3076 66.9987H7.31221L11.234 55.9879C12.2589 53.1092 14.8764 50.9735 18.0631 50.4132L26.1926 48.987L28.2716 57.7402C26.9137 58.2921 25.9616 59.5558 25.9616 61.0263V70.5822C25.9616 72.5578 27.6794 74.1656 29.7903 74.1656H50.2099C52.3207 74.1656 54.0385 72.5578 54.0385 70.5822V61.0263C54.0385 59.5558 53.0865 58.2921 51.7299 57.7402L53.8088 48.987L61.9384 50.4132C65.1251 50.9735 67.7413 53.1092 68.7674 55.9879L72.688 66.9987H62.6926L60.3814 58.3482L57.9055 58.9263L60.061 66.9987H56.591V69.3877ZM51.2985 48.5463L49.536 55.9688L48.6542 52.6648H43.0809L48.0837 47.9825L51.2985 48.5463ZM47.2988 57.4428H32.7014L33.3395 55.0538H46.6607L47.2988 57.4428ZM40.0001 52.1703L33.619 46.1979V44.184C35.5639 45.0225 37.722 45.4979 40.0001 45.4979C42.2794 45.4979 44.4362 45.0165 46.3812 44.178V46.1979L40.0001 52.1703ZM55.3148 30.9443V24.2181C56.7965 24.7127 57.8672 26.0266 57.8672 27.5818C57.8672 29.137 56.7965 30.4498 55.3148 30.9443ZM24.6854 30.9598C23.1999 30.4665 22.133 29.1382 22.133 27.5806C22.133 26.023 23.1999 24.6947 24.6854 24.2014V30.9598ZM22.133 22.8337V19.2192C22.133 9.99777 30.1477 2.4964 40.0001 2.4964C49.8525 2.4964 57.8672 9.99777 57.8672 19.2192V22.8337C57.1117 22.2986 56.2387 21.9032 55.2739 21.7252C55.0736 20.3146 53.7948 19.2192 52.234 19.2192C51.4236 19.2192 50.6297 19.5274 49.9916 20.1246C47.8361 22.1421 45.105 23.4286 42.1467 23.8467L42.2284 23.6938C42.4402 23.2948 42.5525 22.8493 42.5525 22.4037V22.1027C42.5525 20.5128 41.1704 19.2192 39.4717 19.2192C38.6613 19.2192 37.8675 19.5274 37.2932 20.0637C34.6042 22.5793 31.0372 23.9745 27.2379 23.9972V21.6082H25.9616C24.5195 21.6082 23.2025 22.0752 22.133 22.8337ZM27.2379 31.1641V26.3861C31.7187 26.3634 35.9277 24.7198 39.0965 21.7539C39.4041 21.4648 40.0001 21.7002 40.0001 22.1027V22.4037C40.0001 22.4802 39.9809 22.5566 39.9439 22.6259L37.9352 26.3861H40.0001C44.4567 26.3861 48.6452 24.7628 51.8587 21.7539C52.1676 21.4648 52.7623 21.7002 52.7623 22.1027V31.1641C52.7623 37.7505 47.0372 43.109 40.0001 43.109C32.963 43.109 27.2379 37.7505 27.2379 31.1641ZM31.9165 47.9825L36.9193 52.6648H31.346L30.4642 55.9688L28.7017 48.5463L31.9165 47.9825ZM29.7903 71.7766C29.0871 71.7766 28.5141 71.2415 28.5141 70.5822V61.0263C28.5141 60.3669 29.0871 59.8318 29.7903 59.8318H33.7606C32.1003 61.3512 31.0665 63.4654 31.0665 65.8042C31.0665 68.143 32.1003 70.2573 33.7606 71.7766H29.7903ZM40.0001 71.7766C36.4815 71.7766 33.619 69.0974 33.619 65.8042C33.619 62.511 36.4815 59.8318 40.0001 59.8318C43.5186 59.8318 46.3812 62.511 46.3812 65.8042C46.3812 69.0974 43.5186 71.7766 40.0001 71.7766ZM51.4861 70.5822C51.4861 71.2415 50.9131 71.7766 50.2099 71.7766H46.2395C47.8999 70.2573 48.9337 68.143 48.9337 65.8042C48.9337 63.4654 47.8999 61.3512 46.2395 59.8318H50.2099C50.9131 59.8318 51.4861 60.3669 51.4861 61.0263V70.5822Z" fill="#FFB400"/>
</g>
</g>
<g id="Group_3">
<g id="Group_4">
<path id="Vector_2" d="M40.0001 62.2207C37.8892 62.2207 36.1714 63.8285 36.1714 65.8042C36.1714 67.7799 37.8892 69.3876 40.0001 69.3876C42.1109 69.3876 43.8287 67.7799 43.8287 65.8042C43.8287 63.8285 42.1109 62.2207 40.0001 62.2207ZM40.0001 66.9987C39.2969 66.9987 38.7238 66.4635 38.7238 65.8042C38.7238 65.1448 39.2969 64.6097 40.0001 64.6097C40.7033 64.6097 41.2763 65.1448 41.2763 65.8042C41.2763 66.4635 40.7033 66.9987 40.0001 66.9987Z" fill="#FFB400"/>
</g>
</g>
</g>
<defs>
<clipPath id="clip0_2_6020">
<rect width="79.1258" height="74.0582" fill="white" transform="translate(0.437012 0.107422)"/>
</clipPath>
</defs>
</svg>
